<svg width="24" height="24" viewBox="0 0 24 24" fill="none" xmlns="http://www.w3.org/2000/svg">
  <path d="M12 2C13.1 2 14 2.9 14 4C14 5.1 13.1 6 12 6C10.9 6 10 5.1 10 4C10 2.9 10.9 2 12 2ZM21 9V7L15 1H5C3.89 1 3 1.89 3 3V21C3 22.11 3.89 23 5 23H19C20.11 23 21 22.11 21 21V9ZM19 9H14V4H5V21H19V9Z" fill="currentColor"/>
  <path d="M12 8C13.1 8 14 8.9 14 10C14 11.1 13.1 12 12 12C10.9 12 10 11.1 10 10C10 8.9 10.9 8 12 8ZM16 16C16 14.9 15.1 14 14 14H10C8.9 14 8 14.9 8 16V18H16V16Z" fill="currentColor"/>
</svg> 